<?xml version="1.0" standalone="no"?><!DOCTYPE svg PUBLIC "-//W3C//DTD SVG 1.1//EN" "http://www.w3.org/Graphics/SVG/1.1/DTD/svg11.dtd"><svg t="1503570828809" class="icon" style="" viewBox="0 0 1024 1024" version="1.1" xmlns="http://www.w3.org/2000/svg" p-id="7537" xmlns:xlink="http://www.w3.org/1999/xlink" width="48" height="48"><defs><style type="text/css"></style></defs><path d="M511.936 1024c-41.024 0-81.92-12.352-122.88-37.376a7884.8 7884.8 0 0 0-228.096-131.264c-82.56-46.528-123.136-117.248-121.792-212.352C41.344 555.52 41.6 467.776 40.192 379.52c-2.112-95.04 38.848-165.888 122.88-212.352A6530.368 6530.368 0 0 0 390.08 36.992c81.92-49.28 163.776-49.28 245.632 0 73.088 44.352 148.48 88.512 227.008 132.224 83.456 45.76 124.032 116.672 121.92 212.416a8150.72 8150.72 0 0 0 0 262.4c1.344 95.872-39.552 166.656-122.88 212.416a7230.72 7230.72 0 0 0-228.032 131.2c-40.256 24.384-80.96 36.352-121.792 36.352zM512.896 36.992c-33.984 0-68.416 10.368-103.104 31.232a10469.568 10469.568 0 0 1-229.056 131.2c-70.72 38.848-105.472 98.88-104.064 180.096 1.344 88.192 1.088 176-1.088 263.488-1.344 81.28 33.344 141.248 104.128 180.096 72.128 40.384 148.16 84.224 228.032 132.16 69.376 42.304 138.496 42.688 207.104 1.088a7911.296 7911.296 0 0 1 229.12-132.224c70.656-38.848 105.472-98.496 104.128-179.136a8672.192 8672.192 0 0 1 0-264.448c1.344-80.512-33.024-140.608-103.04-180.096a7272.32 7272.32 0 0 1-228.992-132.224C581.312 47.36 546.88 36.992 512.896 36.992z" fill="#2C2C2C" p-id="7538"></path></svg>